<svg id="Layer_3" enable-background="new 0 0 64 64" height="512" viewBox="0 0 64 64" width="512" xmlns="http://www.w3.org/2000/svg"><path d="m61.293 10.293-8.856 8.856c-.336-.705-.708-1.389-1.139-2.032l11.409-11.41-1.414-1.414-11.229 11.229c-.491-.565-1.021-1.095-1.586-1.586l11.229-11.229-1.414-1.414-11.409 11.409c-.644-.431-1.328-.804-2.032-1.139l8.856-8.856-1.414-1.414-9.458 9.458c-1.527-.485-3.151-.751-4.836-.751-7.448 0-13.932 5.202-15.584 12.419-7.1 1.634-12.416 7.992-12.416 15.581 0 1.652.263 3.271.756 4.829l-9.464 9.464 1.414 1.414 16.758-16.757c2.342-2.341 3.888-5.43 4.368-8.706.658-.146 1.34-.228 2.039-.237-.455 4.132-2.279 7.987-5.236 10.943l-19.342 19.343 1.414 1.414 11.214-11.214c.491.565 1.021 1.095 1.586 1.586l-11.214 11.214 1.414 1.414 19.343-19.343c2.957-2.956 6.812-4.781 10.943-5.236-.009.701-.091 1.384-.238 2.044-3.285.481-6.342 2-8.705 4.364l-16.757 16.757 1.414 1.414 9.464-9.464c1.558.494 3.177.757 4.829.757 7.589 0 13.947-5.316 15.581-12.416 7.217-1.652 12.419-8.136 12.419-15.584 0-1.685-.266-3.309-.751-4.835l9.458-9.458zm-49.293 27.707c0-7.72 6.28-14 14-14 4.136 0 8.025-1.611 10.95-4.536l3.22-3.22c.821.182 1.601.468 2.333.839l-3.553 3.553c-3.459 3.459-8.058 5.364-12.95 5.364-6.617 0-12 5.383-12 12 0 .497.042.992.102 1.484l-1.723 1.723c-.245-1.046-.379-2.118-.379-3.207zm16.994-16.345c1.583-3.271 4.878-5.476 8.574-5.637l-2.032 2.032c-1.825 1.825-4.085 3.05-6.542 3.605zm-10.944 13.881-2.028 2.028c.164-3.77 2.418-6.997 5.635-8.558-.566 2.457-1.821 4.743-3.607 6.53zm-2.687 11.515 1.399-1.399c.478.578 1.008 1.108 1.586 1.586l-1.399 1.399c-.57-.487-1.099-1.016-1.586-1.586zm8.273-5.101-3.868 3.868c-.588-.468-1.118-.998-1.586-1.586l3.868-3.868c3.355-3.355 5.395-7.753 5.838-12.456 4.713-.432 9.088-2.47 12.475-5.858l3.862-3.862c.586.468 1.118 1 1.586 1.586l-3.862 3.862c-3.388 3.388-5.426 7.763-5.858 12.475-4.702.444-9.1 2.484-12.455 5.839zm4.828 4c1.802-1.802 4.069-3.036 6.526-3.599-1.562 3.213-4.787 5.463-8.554 5.627zm-2.464 6.05c-1.089 0-2.161-.134-3.207-.379l1.723-1.723c.492.06.987.102 1.484.102 6.617 0 12-5.383 12-12 0-4.892 1.905-9.491 5.364-12.95l3.553-3.553c.371.732.657 1.512.839 2.333l-3.22 3.22c-2.925 2.925-4.536 6.814-4.536 10.95 0 7.72-6.28 14-14 14zm21.982-25.568c-.161 3.695-2.367 6.991-5.637 8.574.555-2.457 1.78-4.717 3.605-6.542zm-6.055 13.007c.043-.475.073-.953.073-1.439 0-.236.022-.468.034-.702 4.727-1.689 7.966-6.221 7.966-11.298 0-6.617-5.383-12-12-12-5.077 0-9.609 3.239-11.298 7.966-.234.012-.466.034-.702.034-.486 0-.964.03-1.439.073 1.721-5.9 7.197-10.073 13.439-10.073 7.72 0 14 6.28 14 14 0 6.242-4.173 11.718-10.073 13.439z"/></svg>